<?xml version="1.0" standalone="no"?>
<!DOCTYPE svg PUBLIC "-//W3C//DTD SVG 20010904//EN"
 "http://www.w3.org/TR/2001/REC-SVG-20010904/DTD/svg10.dtd">
<svg version="1.0" xmlns="http://www.w3.org/2000/svg"
 width="480.000000pt" height="100.000000pt" viewBox="0 0 480.000000 100.000000"
 preserveAspectRatio="xMidYMid meet">

<g transform="translate(0.000000,100.000000) scale(0.100000,-0.100000)"
fill="#fff" stroke="none">
<path d="M365 731 c-70 -9 -108 -27 -152 -73 -88 -91 -84 -238 8 -325 52 -49
96 -63 199 -63 l90 0 0 85 0 85 -63 0 c-71 0 -97 17 -97 63 0 43 24 57 96 57
l65 0 -3 88 -3 87 -40 1 c-22 1 -67 -2 -100 -5z"/>
<path d="M580 721 c-11 -21 -15 -408 -4 -435 5 -13 23 -16 90 -16 l84 0 0 71
0 70 48 -3 47 -3 3 -68 3 -68 82 3 82 3 3 227 2 228 -23 5 c-12 4 -50 5 -82 3
l-60 -3 -5 -75 -5 -75 -47 -3 -48 -3 0 74 c0 87 0 87 -95 87 -53 0 -66 -3 -75
-19z"/>
<path d="M1093 734 c-10 -4 -13 -61 -13 -235 l0 -229 85 0 85 0 -2 233 -3 232
-70 2 c-38 1 -76 -1 -82 -3z"/>
<path d="M1323 734 c-10 -4 -13 -61 -13 -235 l0 -229 165 0 166 0 -3 68 -3 67
-75 5 -75 5 -5 160 -5 160 -70 2 c-38 1 -76 -1 -82 -3z"/>
<path d="M1707 733 c-4 -3 -7 -109 -7 -235 l0 -228 163 2 162 3 0 65 0 65 -77
3 -78 3 0 158 c0 136 -2 160 -16 165 -21 8 -139 8 -147 -1z"/>
<path d="M2097 733 c-4 -3 -7 -109 -7 -235 l0 -228 85 0 85 0 0 229 c0 199 -2
230 -16 235 -21 8 -139 8 -147 -1z"/>
<path d="M2813 733 c-10 -3 -13 -60 -13 -234 l0 -229 178 2 177 3 0 60 0 60
-90 5 c-82 5 -90 7 -90 25 0 18 8 20 78 23 l77 3 0 54 0 55 -81 0 c-71 0 -80
2 -77 18 3 14 18 18 93 22 l90 5 3 59 c2 41 -1 62 -10 67 -14 9 -314 11 -335
2z"/>
<path d="M3342 728 c-17 -21 -141 -442 -133 -451 4 -4 46 -7 92 -5 79 3 83 4
89 28 6 23 10 25 70 25 60 0 64 -2 70 -25 6 -24 10 -25 89 -28 46 -2 88 1 92
5 9 10 -120 445 -135 455 -20 13 -222 9 -234 -4z m137 -192 c16 -63 15 -66
-19 -66 -16 0 -30 2 -30 5 0 22 23 105 30 105 4 0 13 -20 19 -44z"/>
<path d="M3771 726 c-8 -9 -11 -79 -9 -232 l3 -219 85 0 85 0 5 74 5 73 53
-76 53 -76 80 0 79 0 -2 233 -3 232 -60 3 c-102 5 -104 4 -107 -85 l-3 -78
-49 70 c-27 39 -56 76 -64 83 -22 17 -136 16 -151 -2z"/>
<path d="M4377 726 c-67 -24 -97 -66 -97 -137 0 -56 28 -98 89 -134 28 -16 51
-34 51 -39 0 -4 -33 -7 -72 -5 l-73 4 0 -70 0 -70 80 -8 c44 -5 103 -6 130 -2
194 23 226 229 47 300 -24 10 -41 22 -39 28 1 5 30 10 62 11 l60 1 0 60 c0 55
-2 60 -25 66 -43 12 -173 9 -213 -5z"/>
<path d="M2324 717 c-2 -7 -3 -109 -2 -227 l3 -215 158 -3 c130 -2 164 0 193
14 69 33 88 132 34 185 l-29 30 25 37 c46 66 21 147 -53 178 -44 19 -321 20
-329 1z m234 -96 c8 -4 12 -19 10 -32 -2 -19 -10 -25 -35 -27 -32 -3 -33 -2
-33 32 0 31 3 36 23 36 12 0 28 -4 35 -9z m6 -174 c31 -22 16 -52 -27 -55 -36
-3 -37 -3 -37 32 0 31 3 36 23 36 13 0 31 -6 41 -13z"/>
</g>
</svg>
