<?xml version="1.0" standalone="no"?>
<!DOCTYPE svg PUBLIC "-//W3C//DTD SVG 20010904//EN"
 "http://www.w3.org/TR/2001/REC-SVG-20010904/DTD/svg10.dtd">
<svg version="1.0" xmlns="http://www.w3.org/2000/svg"
 width="435.000000pt" height="397.000000pt" viewBox="0 0 435.000000 397.000000"
 preserveAspectRatio="xMidYMid meet">

<g transform="translate(0.000000,397.000000) scale(0.100000,-0.100000)"
fill="#000000" stroke="none">
<path d="M2664 3318 c-82 -75 -93 -129 -46 -219 24 -47 27 -64 27 -144 0 -140
-33 -182 -162 -203 -107 -18 -176 -45 -193 -75 -11 -20 -12 -31 -4 -44 16 -27
58 -27 130 -2 63 22 64 22 85 3 12 -10 34 -45 50 -76 36 -70 51 -73 114 -18
25 22 51 40 57 40 6 0 26 -13 45 -30 38 -34 77 -39 122 -15 30 15 47 44 34 55
-4 4 -36 28 -70 54 -93 72 -98 88 -83 265 22 256 2 451 -45 451 -8 0 -36 -19
-61 -42z"/>
<path d="M2212 2573 c-40 -57 -62 -114 -91 -234 -139 -581 -420 -988 -853
-1236 -50 -29 -167 -84 -259 -124 -92 -39 -176 -77 -188 -85 -26 -19 -27 -50
-3 -63 38 -20 197 -34 327 -27 445 22 867 167 1180 406 115 87 270 248 354
365 121 172 247 465 287 670 16 80 16 91 1 162 -9 42 -21 81 -25 85 -5 5 -26
1 -47 -8 -48 -20 -107 -14 -147 16 l-29 21 -41 -35 c-40 -35 -75 -44 -112 -30
-9 4 -34 37 -56 74 l-39 67 -58 -19 c-64 -22 -124 -20 -152 6 -23 21 -26 21
-49 -11z m48 -262 c0 -49 -78 -257 -155 -416 -85 -174 -173 -311 -251 -393
-59 -60 -57 -55 37 88 120 183 202 363 265 582 39 136 55 168 84 168 15 0 20
-7 20 -29z"/>
</g>
</svg>
