<svg width="16" height="48" viewBox="0 0 48 48" fill="none" xmlns="http://www.w3.org/2000/svg">
<path d="M7.78786 7.18098L9.93957 6.20504C10.7462 5.83917 11.7263 5.95114 12.2192 6.63625C12.4566 6.96626 12.6998 7.3718 12.8976 7.848C13.2327 8.65433 12.7088 9.49825 11.8591 9.88361L9.79385 10.8203C8.4397 11.4345 7.59441 12.587 7.52736 13.8518C7.38945 16.4535 7.33335 20.8254 7.58576 26.8101C9.09238 25.6737 10.9675 25 13 25C16.3182 25 19.2169 26.7957 20.7775 29.4683C21.7984 29.1636 22.8801 29 24 29C25.1199 29 26.2016 29.1636 27.2225 29.4683C28.7831 26.7957 31.6818 25 35 25C37.0325 25 38.9076 25.6737 40.4142 26.8101C40.6666 20.8254 40.6105 16.4535 40.4726 13.8518C40.4056 12.587 39.5603 11.4345 38.2062 10.8203L36.1409 9.88361C35.2912 9.49825 34.7673 8.65433 35.1024 7.848C35.3002 7.3718 35.5434 6.96626 35.7808 6.63625C36.2737 5.95114 37.2538 5.83917 38.0604 6.20504L40.2121 7.18098C42.9095 8.40441 44.8025 10.8168 44.953 13.6564C45.1495 17.3633 44.7101 24.1036 44.0064 34H44C44 38.9706 39.9706 43 35 43C30.1395 43 26.179 39.1471 26.0059 34.3289C25.3763 34.1157 24.7016 34.0001 24 34.0001C23.2984 34.0001 22.6237 34.1157 21.9941 34.3289C21.821 39.1471 17.8605 43 13 43C8.02944 43 4 38.9706 4 34H3.99361C3.28987 24.1036 2.85052 17.3633 3.04701 13.6564C3.19753 10.8168 5.09047 8.40441 7.78786 7.18098Z" fill="#ccc"/>
<circle cx="13" cy="34" r="5" fill="#000"/>
<circle cx="35" cy="34" r="5" fill="#000"/>
</svg>
