<svg width="513" height="343" viewBox="0 0 513 343" fill="none" xmlns="http://www.w3.org/2000/svg">
<g clip-path="url(#clip0_3_2319)">
<path d="M0 0.860107H513V342.86H0V0.860107Z" fill="#009B3A"/>
<path d="M256.5 20.1601L461.4 171.56L256.5 322.86L50.6 171.56L256.5 20.1601Z" fill="#FEDF00"/>
<path d="M256.5 252.26C300.904 252.26 336.9 216.264 336.9 171.86C336.9 127.456 300.904 91.4601 256.5 91.4601C212.096 91.4601 176.1 127.456 176.1 171.86C176.1 216.264 212.096 252.26 256.5 252.26Z" fill="white"/>
<path d="M215.9 166.56C202 166.56 188.5 168.66 175.8 172.56C176.4 216.46 212.1 251.86 256.1 251.86C283.3 251.86 307.4 238.26 321.9 217.56C297 186.56 258.7 166.56 215.9 166.56ZM334.9 186.86C335.8 181.86 336.4 176.76 336.4 171.46C336.4 127.06 300.4 91.0601 256 91.0601C222.9 91.0601 194.5 111.16 182.1 139.66C193 137.46 204.2 136.26 215.7 136.26C262.5 136.36 304.7 155.76 334.9 186.86Z" fill="#002776"/>
</g>
<defs>
<clipPath id="clip0_3_2319">
<rect width="513" height="342" fill="white" transform="translate(0 0.860107)"/>
</clipPath>
</defs>
</svg>
